999
dxflib 2.0.4.8
  0
SECTION
  2
HEADER
  9
$ACADVER
  1
AC1015
  9
$HANDSEED
  5
FFFF
  9
$DIMASZ
 40
2.5
  9
$DIMGAP
 40
0.625
  9
$INSUNITS
 70
4
  9
$DIMEXO
 40
0.625
  9
$DIMTXT
 40
2.5
  9
$PSVPSCALE
 40
1.0
  9
$DIMSTYLE
  2
Standard
  9
$PLIMMIN
 10
0.0
 20
0.0
  9
$PLIMMAX
 10
210.0
 20
297.0
  9
$PINSBASE
 10
34.3014090344028872
 20
69.2934752577854312
 30
0.0
  9
$DIMEXE
 40
1.25
  0
ENDSEC
  0
SECTION
  2
TABLES
  0
TABLE
  2
VPORT
  5
8
100
AcDbSymbolTable
 70
1
  0
VPORT
  5
30
100
AcDbSymbolTableRecord
100
AcDbViewportTableRecord
  2
*Active
 70
0
 10
0.0
 20
0.0
 11
1.0
 21
1.0
 12
286.3055555555554861
 22
148.5
 13
0.0
 23
0.0
 14
10.0
 24
10.0
 15
10.0
 25
10.0
 16
0.0
 26
0.0
 36
1.0
 17
0.0
 27
0.0
 37
0.0
 40
297.0
 41
1.92798353909465
 42
50.0
 43
0.0
 44
0.0
 50
0.0
 51
0.0
 71
0
 72
100
 73
1
 74
3
 75
1
 76
1
 77
0
 78
0
281
0
 65
1
110
0.0
120
0.0
130
0.0
111
1.0
121
0.0
131
0.0
112
0.0
122
1.0
132
0.0
 79
0
146
0.0
  0
ENDTAB
  0
TABLE
  2
LTYPE
  5
5
100
AcDbSymbolTable
 70
21
  0
LTYPE
  5
14
100
AcDbSymbolTableRecord
100
AcDbLinetypeTableRecord
  2
ByBlock
 70
0
  3

 72
65
 73
0
 40
0.0
  0
LTYPE
  5
15
100
AcDbSymbolTableRecord
100
AcDbLinetypeTableRecord
  2
ByLayer
 70
0
  3

 72
65
 73
0
 40
0.0
  0
LTYPE
  5
16
100
AcDbSymbolTableRecord
100
AcDbLinetypeTableRecord
  2
CONTINUOUS
 70
0
  3
Solid line
 72
65
 73
0
 40
0.0
  0
LTYPE
  5
31
100
AcDbSymbolTableRecord
100
AcDbLinetypeTableRecord
  2
DOT
 70
0
  3
Dot . . . . . . . . . . . . . . . . . . . . . .
 72
65
 73
2
 40
6.3499999999999996
 49
0.0
 74
0
 49
-6.3499999999999996
 74
0
  0
LTYPE
  5
32
100
AcDbSymbolTableRecord
100
AcDbLinetypeTableRecord
  2
DOT2
 70
0
  3
Dot (.5x) .....................................
 72
65
 73
2
 40
3.1749999999999998
 49
0.0
 74
0
 49
-3.1749999999999998
 74
0
  0
LTYPE
  5
33
100
AcDbSymbolTableRecord
100
AcDbLinetypeTableRecord
  2
DOTX2
 70
0
  3
Dot (2x) .  .  .  .  .  .  .  .  .  .  .  .  .
 72
65
 73
2
 40
12.6999999999999993
 49
0.0
 74
0
 49
-12.6999999999999993
 74
0
  0
LTYPE
  5
34
100
AcDbSymbolTableRecord
100
AcDbLinetypeTableRecord
  2
DASHED
 70
0
  3
Dashed __ __ __ __ __ __ __ __ __ __ __ __ __ _
 72
65
 73
2
 40
19.0500000000000007
 49
12.6999999999999993
 74
0
 49
-6.3499999999999996
 74
0
  0
LTYPE
  5
35
100
AcDbSymbolTableRecord
100
AcDbLinetypeTableRecord
  2
DASHED2
 70
0
  3
Dashed (.5x) _ _ _ _ _ _ _ _ _ _ _ _ _ _ _ _ _
 72
65
 73
2
 40
9.5250000000000004
 49
6.3499999999999996
 74
0
 49
-3.1749999999999998
 74
0
  0
LTYPE
  5
36
100
AcDbSymbolTableRecord
100
AcDbLinetypeTableRecord
  2
DASHEDX2
 70
0
  3
Dashed (2x) ____  ____  ____  ____  ____  ___
 72
65
 73
2
 40
38.1000000000000014
 49
25.3999999999999986
 74
0
 49
-12.6999999999999993
 74
0
  0
LTYPE
  5
37
100
AcDbSymbolTableRecord
100
AcDbLinetypeTableRecord
  2
DASHDOT
 70
0
  3
Dash dot __ . __ . __ . __ . __ . __ . __ . __
 72
65
 73
4
 40
25.3999999999999986
 49
12.6999999999999993
 74
0
 49
-6.3499999999999996
 74
0
 49
0.0
 74
0
 49
-6.3499999999999996
 74
0
  0
LTYPE
  5
38
100
AcDbSymbolTableRecord
100
AcDbLinetypeTableRecord
  2
DASHDOT2
 70
0
  3
Dash dot (.5x) _._._._._._._._._._._._._._._.
 72
65
 73
4
 40
12.6999999999999993
 49
6.3499999999999996
 74
0
 49
-3.1749999999999998
 74
0
 49
0.0
 74
0
 49
-3.1749999999999998
 74
0
  0
LTYPE
  5
39
100
AcDbSymbolTableRecord
100
AcDbLinetypeTableRecord
  2
DASHDOTX2
 70
0
  3
Dash dot (2x) ____  .  ____  .  ____  .  ___
 72
65
 73
4
 40
50.7999999999999972
 49
25.3999999999999986
 74
0
 49
-12.6999999999999993
 74
0
 49
0.0
 74
0
 49
-12.6999999999999993
 74
0
  0
LTYPE
  5
3A
100
AcDbSymbolTableRecord
100
AcDbLinetypeTableRecord
  2
DIVIDE
 70
0
  3
Divide ____ . . ____ . . ____ . . ____ . . ____
 72
65
 73
6
 40
31.75
 49
12.6999999999999993
 74
0
 49
-6.3499999999999996
 74
0
 49
0.0
 74
0
 49
-6.3499999999999996
 74
0
 49
0.0
 74
0
 49
-6.3499999999999996
 74
0
  0
LTYPE
  5
3B
100
AcDbSymbolTableRecord
100
AcDbLinetypeTableRecord
  2
DIVIDE2
 70
0
  3
Divide (.5x) __..__..__..__..__..__..__..__.._
 72
65
 73
6
 40
15.875
 49
6.3499999999999996
 74
0
 49
-3.1749999999999998
 74
0
 49
0.0
 74
0
 49
-3.1749999999999998
 74
0
 49
0.0
 74
0
 49
-3.1749999999999998
 74
0
  0
LTYPE
  5
3C
100
AcDbSymbolTableRecord
100
AcDbLinetypeTableRecord
  2
DIVIDEX2
 70
0
  3
Divide (2x) ________  .  .  ________  .  .  _
 72
65
 73
6
 40
63.5
 49
25.3999999999999986
 74
0
 49
-12.6999999999999993
 74
0
 49
0.0
 74
0
 49
-12.6999999999999993
 74
0
 49
0.0
 74
0
 49
-12.6999999999999993
 74
0
  0
LTYPE
  5
3D
100
AcDbSymbolTableRecord
100
AcDbLinetypeTableRecord
  2
CENTER
 70
0
  3
Center ____ _ ____ _ ____ _ ____ _ ____ _ ____
 72
65
 73
4
 40
50.7999999999999972
 49
31.75
 74
0
 49
-6.3499999999999996
 74
0
 49
6.3499999999999996
 74
0
 49
-6.3499999999999996
 74
0
  0
LTYPE
  5
3E
100
AcDbSymbolTableRecord
100
AcDbLinetypeTableRecord
  2
CENTER2
 70
0
  3
Center (.5x) ___ _ ___ _ ___ _ ___ _ ___ _ ___
 72
65
 73
4
 40
28.5749999999999993
 49
19.0500000000000007
 74
0
 49
-3.1749999999999998
 74
0
 49
3.1749999999999998
 74
0
 49
-3.1749999999999998
 74
0
  0
LTYPE
  5
3F
100
AcDbSymbolTableRecord
100
AcDbLinetypeTableRecord
  2
CENTERX2
 70
0
  3
Center (2x) ________  __  ________  __  _____
 72
65
 73
4
 40
101.5999999999999943
 49
63.5
 74
0
 49
-12.6999999999999993
 74
0
 49
12.6999999999999993
 74
0
 49
-12.6999999999999993
 74
0
  0
LTYPE
  5
40
100
AcDbSymbolTableRecord
100
AcDbLinetypeTableRecord
  2
BORDER
 70
0
  3
Border __ __ . __ __ . __ __ . __ __ . __ __ .
 72
65
 73
6
 40
44.4500000000000028
 49
12.6999999999999993
 74
0
 49
-6.3499999999999996
 74
0
 49
12.6999999999999993
 74
0
 49
-6.3499999999999996
 74
0
 49
0.0
 74
0
 49
-6.3499999999999996
 74
0
  0
LTYPE
  5
41
100
AcDbSymbolTableRecord
100
AcDbLinetypeTableRecord
  2
BORDER2
 70
0
  3
Border (.5x) __.__.__.__.__.__.__.__.__.__.__.
 72
65
 73
6
 40
22.2250000000000014
 49
6.3499999999999996
 74
0
 49
-3.1749999999999998
 74
0
 49
6.3499999999999996
 74
0
 49
-3.1749999999999998
 74
0
 49
0.0
 74
0
 49
-3.1749999999999998
 74
0
  0
LTYPE
  5
42
100
AcDbSymbolTableRecord
100
AcDbLinetypeTableRecord
  2
BORDERX2
 70
0
  3
Border (2x) ____  ____  .  ____  ____  .  ___
 72
65
 73
6
 40
88.9000000000000057
 49
25.3999999999999986
 74
0
 49
-12.6999999999999993
 74
0
 49
25.3999999999999986
 74
0
 49
-12.6999999999999993
 74
0
 49
0.0
 74
0
 49
-12.6999999999999993
 74
0
  0
ENDTAB
  0
TABLE
  2
LAYER
  5
2
100
AcDbSymbolTable
 70
2
  0
LAYER
  5
10
100
AcDbSymbolTableRecord
100
AcDbLayerTableRecord
  2
0
 70
0
 62
7
  6
CONTINUOUS
370
0
390
F
  0
LAYER
  5
43
100
AcDbSymbolTableRecord
100
AcDbLayerTableRecord
  2
hase
 70
0
 62
7
  6
CONTINUOUS
370
0
390
F
  0
ENDTAB
  0
TABLE
  2
STYLE
  5
3
100
AcDbSymbolTable
 70
1
  0
STYLE
  5
11
100
AcDbSymbolTableRecord
100
AcDbTextStyleTableRecord
  2
Standard
 70
0
 40
0.0
 41
0.75
 50
0.0
 71
0
 42
2.5
  3
txt
  4

  0
ENDTAB
  0
TABLE
  2
VIEW
  5
6
100
AcDbSymbolTable
 70
0
  0
ENDTAB
  0
TABLE
  2
UCS
  5
7
100
AcDbSymbolTable
 70
0
  0
ENDTAB
  0
TABLE
  2
APPID
  5
9
100
AcDbSymbolTable
 70
1
  0
APPID
  5
12
100
AcDbSymbolTableRecord
100
AcDbRegAppTableRecord
  2
ACAD
 70
0
  0
ENDTAB
  0
TABLE
  2
DIMSTYLE
  5
A
100
AcDbSymbolTable
 70
1
100
AcDbDimStyleTable
 71
0
  0
DIMSTYLE
105
27
100
AcDbSymbolTableRecord
100
AcDbDimStyleTableRecord
  2
Standard
 41
2.5
 42
0.625
 43
3.75
 44
1.25
 70
0
 73
0
 74
0
 77
1
 78
8
140
2.5
141
2.5
143
0.03937007874016
147
0.625
171
3
172
1
271
2
272
2
274
3
278
44
283
0
284
8
340
11
  0
ENDTAB
  0
TABLE
  2
BLOCK_RECORD
  5
1
100
AcDbSymbolTable
 70
1
  0
BLOCK_RECORD
  5
1F
100
AcDbSymbolTableRecord
100
AcDbBlockTableRecord
  2
*Model_Space
340
22
  0
BLOCK_RECORD
  5
1B
100
AcDbSymbolTableRecord
100
AcDbBlockTableRecord
  2
*Paper_Space
340
1E
  0
BLOCK_RECORD
  5
23
100
AcDbSymbolTableRecord
100
AcDbBlockTableRecord
  2
*Paper_Space0
340
26
  0
ENDTAB
  0
ENDSEC
  0
SECTION
  2
BLOCKS
  0
BLOCK
  5
20
100
AcDbEntity
  8
0
100
AcDbBlockBegin
  2
*Model_Space
 70
0
 10
0.0
 20
0.0
 30
0.0
  3
*Model_Space
  1

  0
ENDBLK
  5
21
100
AcDbEntity
  8
0
100
AcDbBlockEnd
  0
BLOCK
  5
1C
100
AcDbEntity
 67
1
  8
0
100
AcDbBlockBegin
  2
*Paper_Space
 70
0
 10
0.0
 20
0.0
 30
0.0
  3
*Paper_Space
  1

  0
ENDBLK
  5
1D
100
AcDbEntity
 67
1
  8
0
100
AcDbBlockEnd
  0
BLOCK
  5
24
100
AcDbEntity
  8
0
100
AcDbBlockBegin
  2
*Paper_Space0
 70
0
 10
0.0
 20
0.0
 30
0.0
  3
*Paper_Space0
  1

  0
ENDBLK
  5
25
100
AcDbEntity
  8
0
100
AcDbBlockEnd
  0
ENDSEC
  0
SECTION
  2
ENTITIES
  0
ARC
  5
44
100
AcDbEntity
  8
hase
 62
5
370
-1
  6
ByLayer
100
AcDbCircle
 10
13.9464026374430858
 20
29.9081569722094116
 30
0.0
 40
25.0
100
AcDbArc
 50
64.9999999999999716
 51
244.9999999999999147
  0
ARC
  5
45
100
AcDbEntity
  8
hase
 62
5
370
-1
  6
ByLayer
100
AcDbCircle
 10
28.8730086918667439
 20
26.9244837467273328
 30
0.0
 40
46.9919624655887063
100
AcDbArc
 50
122.8254443121724506
 51
226.6564179892132245
  0
ARC
  5
46
100
AcDbEntity
  8
hase
 62
5
370
-1
  6
ByLayer
100
AcDbCircle
 10
63.7280901477906667
 20
46.9525428887906457
 30
0.0
 40
21.2432781383848024
100
AcDbArc
 50
211.9585211648495715
 51
258.5640517305959634
  0
LINE
  5
47
100
AcDbEntity
100
AcDbLine
  8
hase
 62
5
370
-1
  6
ByLayer
 10
57.5906893516651621
 20
33.25
 30
0.0
 11
59.5161357049161808
 21
26.1310082230670844
 31
0.0
  0
LINE
  5
48
100
AcDbEntity
100
AcDbLine
  8
hase
 62
5
370
-1
  6
ByLayer
 10
56.2916512459885041
 20
32.5
 30
0.0
 11
55.7715927683707093
 21
36.2184958284993002
 31
0.0
  0
LINE
  5
49
100
AcDbEntity
100
AcDbLine
  8
hase
 62
5
370
-1
  6
ByLayer
 10
54.5135869164525673
 20
35.4015372759767502
 30
0.0
 11
53.7996301259339873
 21
39.0877192774494517
 31
0.0
  0
LINE
  5
4A
100
AcDbEntity
100
AcDbLine
  8
hase
 62
5
370
-1
  6
ByLayer
 10
52.5861046343715657
 20
38.2060413990107577
 30
0.0
 11
51.6802064368885681
 21
41.8498060048141838
 31
0.0
  0
LINE
  5
4B
100
AcDbEntity
100
AcDbLine
  8
hase
 62
5
370
-1
  6
ByLayer
 10
50.5144874947031042
 20
40.9058254182394307
 30
0.0
 11
49.419130894246706
 21
44.4971853228640555
 31
0.0
  0
LINE
  5
4C
100
AcDbEntity
100
AcDbLine
  8
hase
 62
5
370
-1
  6
ByLayer
 10
48.3044136560306185
 20
43.4934894133257757
 30
0.0
 11
47.0226009489054206
 21
47.0226009489054206
 31
0.0
  0
LINE
  5
4D
100
AcDbEntity
100
AcDbLine
  8
hase
 62
5
370
-1
  6
ByLayer
 10
45.9619407771255908
 20
45.9619407771255908
 30
0.0
 11
44.4971853228640839
 21
49.419130894246706
 31
0.0
  0
LINE
  5
4E
100
AcDbEntity
100
AcDbLine
  8
hase
 62
5
370
-1
  6
ByLayer
 10
43.4934894133257899
 20
48.3044136560306185
 30
0.0
 11
41.8498060048141838
 21
51.6802064368885681
 31
0.0
  0
LINE
  5
4F
100
AcDbEntity
100
AcDbLine
  8
hase
 62
5
370
-1
  6
ByLayer
 10
40.9058254182394307
 20
50.5144874947031042
 30
0.0
 11
39.0877192774494517
 21
53.7996301259339873
 31
0.0
  0
LINE
  5
50
100
AcDbEntity
100
AcDbLine
  8
hase
 62
5
370
-1
  6
ByLayer
 10
38.2060413990107577
 20
52.5861046343715657
 30
0.0
 11
36.2184958284993002
 21
55.7715927683706809
 31
0.0
  0
LINE
  5
51
100
AcDbEntity
100
AcDbLine
  8
hase
 62
5
370
-1
  6
ByLayer
 10
35.4015372759767644
 20
54.5135869164525388
 30
0.0
 11
33.2500000000000142
 21
57.5906893516651621
 31
0.0
  0
LINE
  5
52
100
AcDbEntity
100
AcDbLine
  8
hase
 62
5
370
-1
  6
ByLayer
 10
32.5
 20
56.2916512459885041
 30
0.0
 11
30.190368232679873
 21
59.2519338585264705
 31
0.0
  0
LINE
  5
53
100
AcDbEntity
100
AcDbLine
  8
hase
 62
5
370
-1
  6
ByLayer
 10
29.5093824830705387
 20
57.9154240722439226
 30
0.0
 11
27.0479867645407239
 21
60.750772933232966
 31
0.0
  0
LINE
  5
54
100
AcDbEntity
100
AcDbLine
  8
hase
 62
5
370
-1
  6
ByLayer
 10
26.4378817999270268
 20
59.3804547467690611
 30
0.0
 11
23.8314686447624808
 21
62.0830983620639216
 31
0.0
  0
LINE
  5
55
100
AcDbEntity
100
AcDbLine
  8
hase
 62
5
370
-1
  6
ByLayer
 10
23.2939167204445283
 20
60.6827277223181056
 30
0.0
 11
20.5496301259340015
 21
63.2452583336277172
 31
0.0
  0
LINE
  5
56
100
AcDbEntity
100
AcDbLine
  8
hase
 62
5
370
-1
  6
ByLayer
 10
20.0861046343715799
 20
61.8186735591849867
 30
0.0
 11
17.2114664993176234
 21
64.234067448223044
 31
0.0
  0
LINE
  5
57
100
AcDbEntity
100
AcDbLine
  8
hase
 62
5
370
-1
  6
ByLayer
 10
16.8232379316638401
 20
62.7851787087894309
 30
0.0
 11
13.826127439380997
 21
65.046815448798057
 31
0.0
  0
LINE
  5
58
100
AcDbEntity
100
AcDbLine
  8
hase
 62
5
370
-1
  6
ByLayer
 10
13.5142599031543611
 20
63.5795940476973556
 30
0.0
 11
10.4028919251753535
 21
65.6812746495766646
 31
0.0
  0
LINE
  5
59
100
AcDbEntity
100
AcDbLine
  8
hase
 62
5
370
-1
  6
ByLayer
 10
10.1682402276150086
 20
64.1997421386839591
 30
0.0
 11
6.9511428072989503
 21
66.1357060419901615
 31
0.0
  0
LINE
  5
5A
100
AcDbEntity
100
AcDbLine
  8
hase
 62
5
370
-1
  6
ByLayer
 10
6.7943501123974741
 20
64.6439231989377561
 30
0.0
 11
3.3995379360686115
 21
66.4130494844291093
 31
0.0
  0
LINE
  5
5B
100
AcDbEntity
100
AcDbLine
  8
hase
 62
5
370
-1
  6
ByLayer
 10
57.5906893516651621
 20
33.25
 30
0.0
 11
56.2916512459885041
 21
32.5
 31
0.0
  0
LINE
  5
5C
100
AcDbEntity
100
AcDbLine
  8
hase
 62
5
370
-1
  6
ByLayer
 10
55.7715927683707093
 20
36.2184958284993002
 30
0.0
 11
54.5135869164525673
 21
35.4015372759767502
 31
0.0
  0
LINE
  5
5D
100
AcDbEntity
100
AcDbLine
  8
hase
 62
5
370
-1
  6
ByLayer
 10
53.7996301259339873
 20
39.0877192774494517
 30
0.0
 11
52.5861046343715657
 21
38.2060413990107577
 31
0.0
  0
LINE
  5
5E
100
AcDbEntity
100
AcDbLine
  8
hase
 62
5
370
-1
  6
ByLayer
 10
51.6802064368885681
 20
41.8498060048141838
 30
0.0
 11
50.5144874947031042
 21
40.9058254182394307
 31
0.0
  0
LINE
  5
5F
100
AcDbEntity
100
AcDbLine
  8
hase
 62
5
370
-1
  6
ByLayer
 10
49.419130894246706
 20
44.4971853228640555
 30
0.0
 11
48.3044136560306185
 21
43.4934894133257757
 31
0.0
  0
LINE
  5
60
100
AcDbEntity
100
AcDbLine
  8
hase
 62
5
370
-1
  6
ByLayer
 10
47.0226009489054206
 20
47.0226009489054206
 30
0.0
 11
45.9619407771255908
 21
45.9619407771255908
 31
0.0
  0
LINE
  5
61
100
AcDbEntity
100
AcDbLine
  8
hase
 62
5
370
-1
  6
ByLayer
 10
44.4971853228640839
 20
49.419130894246706
 30
0.0
 11
43.4934894133257899
 21
48.3044136560306185
 31
0.0
  0
LINE
  5
62
100
AcDbEntity
100
AcDbLine
  8
hase
 62
5
370
-1
  6
ByLayer
 10
41.8498060048141838
 20
51.6802064368885681
 30
0.0
 11
40.9058254182394307
 21
50.5144874947031042
 31
0.0
  0
LINE
  5
63
100
AcDbEntity
100
AcDbLine
  8
hase
 62
5
370
-1
  6
ByLayer
 10
39.0877192774494517
 20
53.7996301259339873
 30
0.0
 11
38.2060413990107577
 21
52.5861046343715657
 31
0.0
  0
LINE
  5
64
100
AcDbEntity
100
AcDbLine
  8
hase
 62
5
370
-1
  6
ByLayer
 10
36.2184958284993002
 20
55.7715927683706809
 30
0.0
 11
35.4015372759767644
 21
54.5135869164525388
 31
0.0
  0
LINE
  5
65
100
AcDbEntity
100
AcDbLine
  8
hase
 62
5
370
-1
  6
ByLayer
 10
33.2500000000000142
 20
57.5906893516651621
 30
0.0
 11
32.5
 21
56.2916512459885041
 31
0.0
  0
LINE
  5
66
100
AcDbEntity
100
AcDbLine
  8
hase
 62
5
370
-1
  6
ByLayer
 10
30.190368232679873
 20
59.2519338585264705
 30
0.0
 11
29.5093824830705387
 21
57.9154240722439226
 31
0.0
  0
LINE
  5
67
100
AcDbEntity
100
AcDbLine
  8
hase
 62
5
370
-1
  6
ByLayer
 10
27.0479867645407239
 20
60.750772933232966
 30
0.0
 11
26.4378817999270268
 21
59.3804547467690611
 31
0.0
  0
LINE
  5
68
100
AcDbEntity
100
AcDbLine
  8
hase
 62
5
370
-1
  6
ByLayer
 10
23.8314686447624808
 20
62.0830983620639216
 30
0.0
 11
23.2939167204445283
 21
60.6827277223181056
 31
0.0
  0
LINE
  5
69
100
AcDbEntity
100
AcDbLine
  8
hase
 62
5
370
-1
  6
ByLayer
 10
20.5496301259340015
 20
63.2452583336277172
 30
0.0
 11
20.0861046343715799
 21
61.8186735591849867
 31
0.0
  0
LINE
  5
6A
100
AcDbEntity
100
AcDbLine
  8
hase
 62
5
370
-1
  6
ByLayer
 10
17.2114664993176234
 20
64.234067448223044
 30
0.0
 11
16.8232379316638401
 21
62.7851787087894309
 31
0.0
  0
LINE
  5
6B
100
AcDbEntity
100
AcDbLine
  8
hase
 62
5
370
-1
  6
ByLayer
 10
13.826127439380997
 20
65.046815448798057
 30
0.0
 11
13.5142599031543611
 21
63.5795940476973556
 31
0.0
  0
LINE
  5
6C
100
AcDbEntity
100
AcDbLine
  8
hase
 62
5
370
-1
  6
ByLayer
 10
10.4028919251753535
 20
65.6812746495766646
 30
0.0
 11
10.1682402276150086
 21
64.1997421386839591
 31
0.0
  0
LINE
  5
6D
100
AcDbEntity
100
AcDbLine
  8
hase
 62
5
370
-1
  6
ByLayer
 10
6.9511428072989503
 20
66.1357060419901615
 30
0.0
 11
6.7943501123974741
 21
64.6439231989377561
 31
0.0
  0
ARC
  5
6E
100
AcDbEntity
  8
hase
 62
5
370
-1
  6
ByLayer
100
AcDbCircle
 10
0.0
 20
0.0
 30
0.0
 40
7.9999999999999689
100
AcDbArc
 50
245.0000000000001421
 51
64.9999985536064742
  0
ARC
  5
6F
100
AcDbEntity
  8
hase
 62
256
370
-1
  6
ByLayer
100
AcDbCircle
 10
0.0
 20
0.0
 30
0.0
 40
57.9999999999999716
100
AcDbArc
 50
37.9999999999998721
 51
64.9999999999999716
  0
ENDSEC
  0
SECTION
  2
OBJECTS
  0
DICTIONARY
  5
C
100
AcDbDictionary
280
0
281
1
  3
ACAD_GROUP
350
D
  3
ACAD_LAYOUT
350
1A
  3
ACAD_MLINESTYLE
350
17
  3
ACAD_PLOTSETTINGS
350
19
  3
ACAD_PLOTSTYLENAME
350
E
  3
AcDbVariableDictionary
350
70
  0
DICTIONARY
  5
D
100
AcDbDictionary
280
0
281
1
  0
ACDBDICTIONARYWDFLT
  5
E
100
AcDbDictionary
281
1
  3
Normal
350
F
100
AcDbDictionaryWithDefault
340
F
  0
ACDBPLACEHOLDER
  5
F
  0
DICTIONARY
  5
17
100
AcDbDictionary
280
0
281
1
  3
Standard
350
18
  0
MLINESTYLE
  5
18
100
AcDbMlineStyle
  2
STANDARD
 70
0
  3

 62
256
 51
90.0
 52
90.0
 71
2
 49
0.5
 62
256
  6
BYLAYER
 49
-0.5
 62
256
  6
BYLAYER
  0
DICTIONARY
  5
19
100
AcDbDictionary
280
0
281
1
  0
DICTIONARY
  5
1A
100
AcDbDictionary
281
1
  3
Layout1
350
1E
  3
Layout2
350
26
  3
Model
350
22
  0
LAYOUT
  5
1E
100
AcDbPlotSettings
  1

  2
C:\Program Files\AutoCAD 2002\plotters\DWF ePlot (optimized for plotting).pc3
  4

  6

 40
0.0
 41
0.0
 42
0.0
 43
0.0
 44
0.0
 45
0.0
 46
0.0
 47
0.0
 48
0.0
 49
0.0
140
0.0
141
0.0
142
1.0
143
1.0
 70
688
 72
0
 73
0
 74
5
  7

 75
16
147
1.0
148
0.0
149
0.0
100
AcDbLayout
  1
Layout1
 70
1
 71
1
 10
0.0
 20
0.0
 11
420.0
 21
297.0
 12
0.0
 22
0.0
 32
0.0
 14
100000000000000000000.0
 24
100000000000000000000.0
 34
100000000000000000000.0
 15
-100000000000000000000.0
 25
-100000000000000000000.0
 35
-100000000000000000000.0
146
0.0
 13
0.0
 23
0.0
 33
0.0
 16
1.0
 26
0.0
 36
0.0
 17
0.0
 27
1.0
 37
0.0
 76
0
330
1B
  0
LAYOUT
  5
22
100
AcDbPlotSettings
  1

  2
C:\Program Files\AutoCAD 2002\plotters\DWF ePlot (optimized for plotting).pc3
  4

  6

 40
0.0
 41
0.0
 42
0.0
 43
0.0
 44
0.0
 45
0.0
 46
0.0
 47
0.0
 48
0.0
 49
0.0
140
0.0
141
0.0
142
1.0
143
1.0
 70
1712
 72
0
 73
0
 74
0
  7

 75
0
147
1.0
148
0.0
149
0.0
100
AcDbLayout
  1
Model
 70
1
 71
0
 10
0.0
 20
0.0
 11
12.0
 21
9.0
 12
0.0
 22
0.0
 32
0.0
 14
0.0
 24
0.0
 34
0.0
 15
0.0
 25
0.0
 35
0.0
146
0.0
 13
0.0
 23
0.0
 33
0.0
 16
1.0
 26
0.0
 36
0.0
 17
0.0
 27
1.0
 37
0.0
 76
0
330
1F
  0
LAYOUT
  5
26
100
AcDbPlotSettings
  1

  2
C:\Program Files\AutoCAD 2002\plotters\DWF ePlot (optimized for plotting).pc3
  4

  6

 40
0.0
 41
0.0
 42
0.0
 43
0.0
 44
0.0
 45
0.0
 46
0.0
 47
0.0
 48
0.0
 49
0.0
140
0.0
141
0.0
142
1.0
143
1.0
 70
688
 72
0
 73
0
 74
5
  7

 75
16
147
1.0
148
0.0
149
0.0
100
AcDbLayout
  1
Layout2
 70
1
 71
2
 10
0.0
 20
0.0
 11
12.0
 21
9.0
 12
0.0
 22
0.0
 32
0.0
 14
0.0
 24
0.0
 34
0.0
 15
0.0
 25
0.0
 35
0.0
146
0.0
 13
0.0
 23
0.0
 33
0.0
 16
1.0
 26
0.0
 36
0.0
 17
0.0
 27
1.0
 37
0.0
 76
0
330
23
  0
DICTIONARY
  5
70
100
AcDbDictionary
281
1
  3
DIMASSOC
350
72
  3
HIDETEXT
350
71
  0
DICTIONARYVAR
  5
71
100
DictionaryVariables
280
0
  1
2
  0
DICTIONARYVAR
  5
72
100
DictionaryVariables
280
0
  1
1
  0
ENDSEC
  0
EOF
